<svg width="134" height="74" viewBox="0 0 134 74" fill="none" xmlns="http://www.w3.org/2000/svg">
<path d="M45.5197 51.9594C45.6045 52.099 45.7092 52.0891 45.8488 52.109C47.2949 52.2786 50.1721 52.109 51.5185 51.5456C54.1364 50.4535 55.2084 47.4517 53.897 44.9185C51.8974 41.064 46.4123 42.7195 42.9317 42.2857L38.3791 35.16C37.7209 34.3173 36.948 33.5643 36.0354 33.0058C35.9357 32.946 35.4221 32.6119 35.3722 32.6618L35.6565 61.4786L30.9143 58.7061C31.3731 56.9609 31.6822 55.1707 31.9116 53.3756C32.495 48.8379 32.7344 44.2503 32.9787 39.6977C33.0934 37.5236 33.4375 34.9506 33.2679 32.8014C33.1882 31.7542 32.6995 31.6445 31.7919 31.4052C29.7076 30.8467 26.9251 30.717 24.7909 30.9414C23.6839 31.0561 21.076 31.8938 20.2881 31.0412C19.2161 29.8843 21.1209 28.1789 21.9187 27.396C31.2484 18.2259 42.7772 10.462 56.5299 14.3315C64.1342 16.4707 70.1729 22.5841 78.7396 20.0759C79.4677 19.8615 80.1458 19.5423 80.8439 19.2631C80.3154 19.8964 79.4527 20.3801 78.7047 20.7142C75.5533 22.1403 72.0428 22.0007 68.6819 21.5619L69.3501 21.9957C70.5818 22.6888 71.9481 23.0578 73.3393 23.2722C78.5452 24.075 83.8059 22.6689 87.8749 19.3628C87.8749 19.5224 87.7153 19.7468 87.6206 19.8714C84.3245 24.2945 78.5701 25.6308 73.3193 25.4912C72.8705 25.4812 72.2323 25.3017 71.7935 25.3117C69.3501 25.3715 64.6129 29.0316 62.4538 30.4079C57.4125 33.6092 51.7528 35.6886 45.6593 35.0603C43.9739 34.8857 42.3134 34.407 40.633 34.1976L44.9563 41.4579C48.1476 41.6175 51.3589 40.9593 54.2909 42.5101C58.3649 44.6642 57.8413 50.0147 53.882 51.9943C53.2637 52.3035 52.5507 52.4182 51.9323 52.7224C56.3005 58.7909 62.4139 65.9714 70.3574 66.8441C76.4957 67.5222 84.145 63.2189 83.1277 56.2777C82.6042 52.6974 79.1485 49.6706 75.4835 51.0968L71.5541 60.9102H68.5872L76.1965 41.7621L79.0588 41.6773L79.1984 41.8269C80.6893 45.4072 81.9709 49.0872 83.5067 52.6426C84.0602 53.9241 84.7134 54.7568 84.8531 56.2777C85.5911 64.4206 77.3235 69.1179 70.0731 68.4746C61.1723 67.6768 54.5253 59.7034 49.6834 52.9667H45.5197V61.1046H42.7423V44.6393H45.5197V51.9644V51.9594ZM68.7517 24.5587C68.6719 24.464 67.9938 24.095 67.8242 24.0002C65.2911 22.6389 62.2444 21.1679 59.6215 19.9462C56.6495 18.56 53.4333 17.2436 50.1073 17.1588C54.6549 21.0632 52.3512 28.6826 46.3126 29.2111C40.2191 29.7447 36.5291 22.5741 40.5332 17.9716C40.5482 17.8968 40.4485 17.9167 40.3886 17.9217C39.6456 17.9766 38.1697 18.5151 37.4217 18.7844C33.6419 20.1357 30.0168 22.4295 26.8553 24.8729C25.7982 25.6907 23.8585 27.1766 23.1653 28.2687C22.4722 29.3607 22.7116 29.1014 23.1155 29.3607L23.6391 29.5103C26.0774 29.3208 28.4809 29.271 30.8994 29.62C35.1778 30.2433 39.0872 32.3177 43.2908 33.1205C51.5085 34.6913 59.417 31.3354 66.1438 26.9273C66.7821 26.5084 68.1583 25.6957 68.632 25.202C69.1058 24.7083 68.9512 24.7931 68.7467 24.5587H68.7517ZM76.391 49.3266C77.0442 49.2917 77.7423 49.3266 78.4006 49.3266C79.0588 49.3266 79.702 49.6906 80.0162 49.8202C80.8439 50.1643 81.5769 50.6979 82.28 51.2414L78.9291 42.6247L76.1566 49.2867C76.0868 49.5759 76.3661 49.3316 76.391 49.3266Z" fill="#E5B701"/>
<path d="M2.73047 69.2426C3.29893 67.4525 3.87736 65.6523 4.23639 63.8073C5.58273 56.8811 6.08637 49.4263 7.14849 42.4004C7.18339 42.181 7.2532 41.9616 7.24822 41.7322L7.38784 41.5876H10.664L16.4233 58.043L22.078 41.5826L24.3668 41.5726L27.0495 61.0049H23.8881L21.7788 45.3973L16.4682 60.9102L14.4537 61.0049L8.09093 43.5772L5.50794 63.0594C5.33341 65.1138 5.22371 67.1782 5.41319 69.2326H2.73047V69.2426Z" fill="#E5B701"/>
<path d="M64.9542 41.6674H62.082V60.9102H64.9542V41.6674Z" fill="#E5B701"/>
<path d="M39.8723 67.0385V64.2162C40.0069 64.0068 40.8895 64.0217 41.0291 64.1165L41.074 69.0581C40.7449 69.2974 40.3709 69.2725 40.0618 69.0132L37.768 66.1858V69.1528H36.6211V64.0766L37.5386 64.1663L39.8773 67.0435L39.8723 67.0385Z" fill="#E5B701"/>
<path d="M88.8895 13.9026C86.9448 14.0672 85.4688 15.6529 85.2045 17.5427C84.9353 15.6579 83.4593 14.0672 81.5195 13.9026C81.7439 13.6333 82.2326 13.6134 82.5717 13.4688C84.1324 12.8056 84.9004 11.7435 85.2045 10.073C85.4339 11.4293 86.1221 12.6311 87.3687 13.2693C87.7925 13.4837 88.2114 13.5635 88.6452 13.7181C89.079 13.8727 88.8746 13.758 88.8895 13.9026Z" fill="#E5B701"/>
<path d="M83.621 7.20081L81.8358 7.94879C80.7388 8.56212 80.1554 9.74392 79.936 10.9357C79.577 8.86131 78.1808 7.63464 76.1562 7.25068C78.1808 6.87669 79.582 5.63008 79.936 3.56567C80.2003 5.48547 81.6962 6.97144 83.621 7.2058V7.20081Z" fill="#E5B701"/>
<path d="M14.2162 64.0716V65.029H11.9673C11.693 65.2783 11.8675 65.742 11.8227 66.0811H13.8821L14.0267 67.0385H11.9673C11.688 67.3178 11.8725 67.8164 11.8227 68.1854H14.2162V69.1428H10.6758V64.2112L10.8204 64.0666H14.2212L14.2162 64.0716Z" fill="#E5B701"/>
<path d="M55.2865 64.0716V65.029H53.0376C52.7633 65.2783 52.9379 65.742 52.893 66.0811H54.9524L55.097 67.0385H52.893V68.1854H55.2865V69.1428H51.7461V64.0666H55.2865V64.0716Z" fill="#E5B701"/>
<path d="M33.6548 65.029H31.2613V66.0811H33.3655V67.0385H31.2613V68.1854H33.6548V69.1428H30.1094V64.0716H33.5102L33.6548 65.029Z" fill="#E5B701"/>
<path d="M20.2264 64.3807C20.3959 64.5602 20.4158 65.4927 20.2014 65.5027C19.608 65.1437 18.9249 64.6749 18.2617 65.1486L18.1819 65.4628C18.2368 66.126 19.977 66.1011 20.4258 66.9089C20.8596 67.6918 20.5505 68.699 19.7377 69.068C18.9249 69.437 17.9226 69.2675 17.2046 68.8386L17.1846 67.8064C17.3342 67.6519 18.521 68.6392 19.2341 68.1804C19.4884 68.0109 19.5731 67.617 19.3188 67.4175C18.4262 67.0485 17.0899 66.844 16.9951 65.6423C16.9004 64.4406 19.1243 63.558 20.2214 64.3857L20.2264 64.3807Z" fill="#E5B701"/>
<path d="M23.5993 67.8065C23.7538 67.6519 25.1002 68.7489 25.7584 68.1007C26.5014 67.3676 24.6115 67.0635 24.2375 66.8391C23.2003 66.2058 23.2153 64.6949 24.3323 64.1813C25.3296 63.7175 27.4239 64.0167 26.6211 65.5077C26.1972 65.1985 25.2498 64.67 24.796 65.1237L24.6464 65.4628C24.6464 66.0313 25.7385 66.1111 26.1773 66.3354C26.9252 66.7194 27.1995 67.3676 26.9801 68.1755C26.641 69.457 24.5118 69.5567 23.6491 68.7688L23.6042 67.8114L23.5993 67.8065Z" fill="#E5B701"/>
<path d="M48.4635 64.3807C48.6131 64.7298 48.6181 65.0539 48.4884 65.408C47.7055 65.1088 47.152 64.7547 46.2894 65.0739C44.8882 65.5925 44.8882 67.7267 46.3293 68.1904C47.1421 68.4497 47.7704 68.1555 48.4884 67.8015C48.623 68.1804 48.638 68.5594 48.3937 68.9035C46.9077 69.6465 44.8832 69.2475 44.2599 67.5821C43.2775 64.9592 46.2445 63.0942 48.4635 64.3807Z" fill="#E5B701"/>
<path d="M89.2683 6.62735L87.8322 7.44015L87.2088 8.83137C86.9894 7.65456 86.2016 6.95147 85.0547 6.67721C86.2265 6.48773 86.9346 5.75471 87.2088 4.6178C87.4382 5.6849 88.1513 6.48773 89.2683 6.63234V6.62735Z" fill="#E5B701"/>
<path d="M79.5024 14.7653C79.5224 14.9349 79.1733 14.87 79.0736 14.8601C76.6651 14.6207 73.8926 13.5586 71.6836 12.5812C67.5498 10.7562 64.0842 8.77657 59.6114 7.61472C46.083 4.09426 34.305 8.88627 23.6838 17.0092L22.5469 17.5927C27.9472 12.5314 33.8811 7.81418 41.1165 5.71986C48.3469 3.63052 55.9812 4.03941 62.9423 6.87173C68.6169 9.18047 73.374 13.6184 79.5074 14.7703L79.5024 14.7653Z" fill="#E5B701"/>
</svg>
